<?xml version="1.0" encoding="utf-8"?>
<!-- Generator: Adobe Illustrator 22.0.1, SVG Export Plug-In . SVG Version: 6.00 Build 0)  -->
<svg version="1.1" id="Ebene_1" xmlns="http://www.w3.org/2000/svg" xmlns:xlink="http://www.w3.org/1999/xlink" x="0px" y="0px"
	 viewBox="0 0 179.7 37.4" style="enable-background:new 0 0 179.7 37.4;" xml:space="preserve">
<style type="text/css">
	.st0{fill:#009EE3;}
	.st1{fill:#E5310E;}
</style>
<path class="st0" d="M43.3,7.5h10.2c6.7,0,11.7,4,11.7,11.3S60.2,30,53.5,30H43.3V7.5z M49,12.2v12.9h4.3c3.7,0,6.1-2.3,6.1-6.4
	c0-4.2-2.5-6.5-6.1-6.5C53.2,12.3,49,12.3,49,12.2z"/>
<path class="st0" d="M84.1,28.2c-1.8,1.5-4.4,2.4-7.4,2.4c-6.5,0-9.5-4-9.5-9.1c0-5.2,3.7-9.2,9.2-9.2c5.3,0,7.8,3.3,7.8,7.2
	c0,1.1-0.2,2.7-0.4,3.3h-11c0.3,2,1.8,3.3,4.3,3.3c1.9,0,3.9-0.9,5-1.7L84.1,28.2z M79.3,18.9c0-1.4-1-2.4-3-2.4
	c-2.1,0-3.3,1.3-3.6,2.8h6.5C79.3,19.1,79.3,19,79.3,18.9z"/>
<path class="st0" d="M108.2,12.6h5.6v3c1-2,2.5-3.3,4.7-3.3c1.3,0,2.5,0.4,3.5,1l-1.7,4.8c-0.8-0.4-1.8-0.7-2.9-0.7
	c-1.9,0-3.2,1.2-3.6,2.8V30h-5.6V12.6z"/>
<path class="st0" d="M131.4,12.1c5.5,0,9.4,3.9,9.4,9.2c0,5.2-4,9.1-9.4,9.1s-9.3-3.9-9.3-9.1C121.9,16,125.9,12.1,131.4,12.1z
	 M131.4,25.5c2.4,0,4-1.8,4-4.1s-1.6-4.1-4-4.1s-4,1.8-4,4.1S128.9,25.5,131.4,25.5z"/>
<path class="st0" d="M148.4,12.6v2c1.3-1.5,3.2-2.3,5.5-2.3c4.7,0,6.7,3.4,6.7,7.7v10h-5.6v-9.1c0-2.2-1-3.5-3.1-3.5
	c-1.8,0-3,1.2-3.5,2.2V30h-5.6V12.6H148.4z"/>
<path class="st0" d="M179.4,28.2c-1.8,1.5-4.4,2.4-7.4,2.4c-6.5,0-9.5-4-9.5-9.1c0-5.2,3.7-9.2,9.2-9.2c5.3,0,7.8,3.3,7.8,7.2
	c0,1.1-0.2,2.7-0.4,3.3h-11.1c0.3,2,1.8,3.3,4.3,3.3c1.9,0,3.9-0.9,5-1.7L179.4,28.2z M174.8,18.9c0-1.4-1-2.4-3-2.4
	c-2.1,0-3.3,1.3-3.6,2.8h6.5C174.8,19.1,174.8,19,174.8,18.9z"/>
<path class="st0" d="M99.2,8.1v6.2c-1.2-1.1-2.9-2-5-2c-4.8,0-8,3.7-8,9s3.3,9,8,9c2.2,0,3.9-0.9,5-2.1V30h5.6V6.6L99.2,8.1z
	 M99.2,24.2c-0.7,0.7-2.1,1.3-3.3,1.3c-2.4,0-4-1.6-4-4.2c0-2.5,1.6-4.1,4-4.1c1.2,0,2.5,0.5,3.3,1.3V24.2z"/>
<g>
	<g>
		<g>
			<polygon class="st1" points="36.8,36.7 30.2,36.7 30.2,34.7 34.8,34.7 34.8,30 36.8,30 			"/>
		</g>
		<g>
			<polygon class="st1" points="7.6,36.7 1.1,36.7 1.1,30 2.9,30 2.9,34.7 7.6,34.7 			"/>
		</g>
		<g>
			<polygon class="st1" points="2.9,7.5 1.1,7.5 1.1,0.9 7.6,0.9 7.6,2.8 2.9,2.8 			"/>
		</g>
		<g>
			<polygon class="st1" points="36.8,7.5 34.8,7.5 34.8,2.8 30.2,2.8 30.2,0.9 36.8,0.9 			"/>
		</g>
	</g>
	<g>
		<g>
			<polygon class="st1" points="30.2,30 25.2,30 25.2,28.3 28.5,28.3 28.5,25 30.2,25 			"/>
		</g>
		<g>
			<polygon class="st1" points="12.6,30 7.6,30 7.6,25 9.4,25 9.4,28.3 12.6,28.3 			"/>
		</g>
		<g>
			<polygon class="st1" points="9.4,12.5 7.6,12.5 7.6,7.5 12.6,7.5 12.6,9.1 9.4,9.1 			"/>
		</g>
		<g>
			<polygon class="st1" points="30.2,12.5 28.5,12.5 28.5,9.1 25.2,9.1 25.2,7.5 30.2,7.5 			"/>
		</g>
	</g>
	<g>
		<g>
			<polygon class="st1" points="24,23.8 20.7,23.8 20.7,22.5 22.7,22.5 22.7,20.5 24,20.5 			"/>
		</g>
		<g>
			<polygon class="st1" points="17.2,23.8 13.9,23.8 13.9,20.5 15.1,20.5 15.1,22.5 17.2,22.5 			"/>
		</g>
		<g>
			<polygon class="st1" points="15.1,17 13.9,17 13.9,13.6 17.2,13.6 17.2,15 15.1,15 			"/>
		</g>
		<g>
			<polygon class="st1" points="24,17 22.7,17 22.7,15 20.7,15 20.7,13.6 24,13.6 			"/>
		</g>
	</g>
</g>
</svg>
